<svg width="137" height="200" viewBox="0 0 137 200" fill="none" xmlns="http://www.w3.org/2000/svg">
<path d="M0 40.7659C0 40.0531 0.379335 39.3942 0.995729 39.0363L67.2108 0.588811C67.837 0.225213 68.6109 0.228484 69.234 0.59736L136.019 40.134C136.627 40.494 137 41.1483 137 41.855V116.047C137 116.757 136.624 117.413 136.011 117.772L53.6296 166.047C52.2963 166.828 50.6185 165.867 50.6185 164.321V129.353C50.6185 128.638 51.0004 127.977 51.6201 127.62L100.235 99.6132C100.855 99.2562 101.237 98.5954 101.237 97.8802V60.0391C101.237 59.3177 100.848 58.6521 100.22 58.2975L68.144 40.19C67.5143 39.8345 66.7418 39.8466 66.1236 40.2216L3.03722 78.4871C1.70436 79.2955 0 78.3359 0 76.777V40.7659Z" fill="#0F359C"/>
<path d="M66.4573 57.6917C66.9733 57.3934 67.5954 57.3407 68.1541 57.548L86.6689 64.4177C87.4817 64.7193 88.0076 65.5101 87.9714 66.3763L87.1236 86.6742C87.0958 87.3387 86.7395 87.946 86.173 88.2944L39.7189 116.864C39.1286 117.227 38.7683 117.87 38.7666 118.563L38.6248 174.94C38.623 175.638 38.2574 176.285 37.66 176.646L3.04026 197.589C1.70626 198.396 0.00284329 197.434 0.00506626 195.875L0.145783 97.1816C0.1468 96.4685 0.5274 95.8099 1.14473 95.453L66.4573 57.6917Z" fill="#F59916"/>
</svg>
